<svg width="88" height="88" viewBox="0 0 88 88" fill="none" xmlns="http://www.w3.org/2000/svg">
<path d="M32.5462 65.0925C23.45 65.0925 15.7524 61.9413 9.45343 55.639C3.15448 49.3367 0.00334072 41.6391 2.64927e-06 32.5462C-0.00333543 23.4533 3.14781 15.7557 9.45343 9.45343C15.7591 3.15114 23.4567 0 32.5462 0C41.6358 0 49.3351 3.15114 55.644 9.45343C61.953 15.7557 65.1025 23.4533 65.0925 32.5462C65.0925 36.2181 64.5083 39.6814 63.34 42.936C62.1716 46.1906 60.5861 49.0697 58.5832 51.5733L86.623 79.6131C87.541 80.5311 88 81.6994 88 83.1181C88 84.5367 87.541 85.7051 86.623 86.623C85.7051 87.541 84.5367 88 83.1181 88C81.6994 88 80.5311 87.541 79.6131 86.623L51.5733 58.5832C49.0697 60.5861 46.1906 62.1716 42.936 63.34C39.6814 64.5083 36.2181 65.0925 32.5462 65.0925ZM32.5462 55.0782C38.8051 55.0782 44.126 52.8885 48.5089 48.5089C52.8918 44.1293 55.0816 38.8085 55.0782 32.5462C55.0749 26.284 52.8851 20.9648 48.5089 16.5886C44.1327 12.2123 38.8118 10.0209 32.5462 10.0142C26.2807 10.0075 20.9614 12.199 16.5886 16.5886C12.2157 20.9781 10.0242 26.2974 10.0142 32.5462C10.0042 38.7951 12.1957 44.116 16.5886 48.5089C20.9815 52.9018 26.3007 55.0916 32.5462 55.0782Z" fill="#001B85"/>
</svg>
